# xmcd
#
# Track frame offsets:
#	182
#	24285
#	40382
#	58902
#	71625
#	84102
#	97350
#	113390
#	133870
#	148145
#	160365
#	172047
#	190100
#	201250
#	213617
#	232252
#	249662
#	257415
#	275617
#	290885
#	303120
#
# Disc length: 4195 seconds
# Revision: 3
# Processed by: cddbd v1.5.2PL0 Copyright (c) Steve Scherf et al.
# Submitted via: dBpowerAMP V12.0
#
DISCID=47106115
DTITLE=Hank Williams, Jr. - The Bocephus Box, Disc 2
DYEAR=1992
DGENRE=Country
TTITLE0=La Grange
TTITLE1=Leave Them Boys Alone
TTITLE2=Blue Jean Blues
TTITLE3=Midnight Rider
TTITLE4=Now I Know How George Feels
TTITLE5=All My Rowdy Friends Are Coming over Tonight
TTITLE6=Major Moves
TTITLE7=Ain't Misbehavin'
TTITLE8=Lawyers, Guns and Money
TTITLE9=This Ain't Dallas
TTITLE10=Two Old Cats Like Us
TTITLE11=Country State of Mind
TTITLE12=Mind Your Own Business
TTITLE13=Secret Agent Man
TTITLE14=Wild Dogs
TTITLE15=My Name Is Bocephus
TTITLE16=Workin' for MCA
TTITLE17=I Really Like Girls/Rock and Roll Music
TTITLE18=House of the Rising Sun
TTITLE19=Born to Boogie
TTITLE20=Keep Your Hands to Yourself
EXTD=
EXTT0=
EXTT1=
EXTT2=
EXTT3=
EXTT4=
EXTT5=
EXTT6=
EXTT7=
EXTT8=
EXTT9=
EXTT10=
EXTT11=
EXTT12=
EXTT13=
EXTT14=
EXTT15=
EXTT16=
EXTT17=
EXTT18=
EXTT19=
EXTT20=
PLAYORDER=
